<?xml version="1.0" encoding="UTF-8"?>
<svg id="Ebene_1" xmlns="http://www.w3.org/2000/svg" version="1.1" viewBox="0 0 566.93 566.93">
  <!-- Generator: Adobe Illustrator 29.4.0, SVG Export Plug-In . SVG Version: 2.1.0 Build 152)  -->
  <path d="M114.44,292.78l6.99,5.51-24.6-31.97c9.3-49.35,15.18-99.49,24.89-148.76.25-1.25.3-4.84,1.71-4.78,7.79,51.25,20.17,101.63,30.05,152.48l-18.05,23.02c-.53,4.39,1.66,8.73,2.02,12.98.56,6.54-.95,13.63.64,20.07l-4.31,4.9c.37,1.31.71,2.6.71,4-.1,31.1,2.04,62.08,2.97,93.03.4,13.3-.95,26.68,1.15,39.85l18.33,15.66c.95.03,6.58-15.18,7.64-17.35,8.03-16.35,16.5-26.19,30.95-37.05,13.21-9.93,27.81-17.91,42.42-25.58,1.64,1-.33,2.2-1,3-4.16,4.95-8.25,8.34-11.69,14.31-9.01,15.66-9.2,39.91,10.19,47.17,23.06,8.63,52.16-10.32,69.91-24.07,1.29-1,14.78-11.79,14.08-12.42l-39.31,21.18c-13.69,7.3-40.21,13.32-51.14-1.24-11.29-15.04.73-33.95,12.96-43.95,5.02-4.11,11.4-6.79,16.36-10.64.31-12.51-3.08-24.77-5.92-36.87l.51-1.53c.63-.88,9.23-5.31,7.54-6.97-6.93,2.17-13.96,4.64-20.99,6.51-11.69,3.11-28.21,9.68-36.47-2.55-4.63-6.85,2.35-16.48-2.51-21.52-.93-.96-2.96-1.31-3.09-2.07-.53-2.93,1.97-5.84.6-8.4-.92-1.72-4.89-2.54-5.44-4.65,1.02-4.5,1.7-8.83-1.07-12.86-4.59.86-13.36-3.32-14.06-7.98-.64-4.29,6.9-21.59,8.53-27.47,1.16-4.2,3.03-10.45,3.41-14.6.35-3.74-1-6.36-.99-9.91,0-2.57,1.44-6.11.95-7.82-.29-1.02-7.9-8.37-9.39-9.68-5.17-4.53-11.58-8.76-17.21-12.77-.88-.63-1.82.13-1.28-2.23,36.06-1.27,71.49,6.66,106.01,16.49l50.98,16.02c-5.24-3.11-11.36-5.68-17-8-21.36-8.79-43.64-15.77-65.99-21.52-.21-1.69,3.53-1.13,4.54-1.04,2.9.24,5.51,1.36,8.45,1.04,1.46-1.39-5.28-7.97-6.5-8.99-12.65-10.53-30.27-15-44.46-23.06-1.33-1.11,9.91-15.26,11.44-16.97,6.33-7.08,13.98-12.77,22.52-16.98.59,2.6-.73,1.7-1.9,2.55-5.82,4.28-10.73,10.39-14.28,16.77-5.02,9.03-5.99,12.69,2.69,19.68,13.81,11.12,48.47,24.01,65.97,30.03,14.85,5.11,29.68,8.47,45.52,7.97l-21.26-6.23c-22.15-8.7-43.91-18.54-64.46-30.55-.84-.49-1.58.32-1.29-1.69.36-2.54,3.77-9.31,5.2-11.85,14.85-26.31,43.46-39.48,72.83-29.19l13.98,5.01c-4.18-2.91-8.65-5.6-13.3-7.7-23.97-10.82-49.49-9.99-74.91-5.53-3.97.7-7.86,1.83-11.78,2.72,3.64-9.55-2.08-16.09-10-20.49.99-1.23,2.27-1.81,3.74-2.26,4.86-1.47,13.54-2.72,18.74-3.26,40.57-4.27,89.07,4.01,117.52,35.53,10.97,12.15,18.64,26.62,25.78,41.23.84,1.73.94,2.97,1.06-.05-11.2-36.6-34.96-64.23-71.84-76.18-27.9-9.04-52.92-6.88-81.47-4.49-2.1.18-4.33.01-6.42-.12-3.56-11.06-8.82-22.54-15.26-32.24-5.84-8.79-20.2-24.74-30.42-27.6-1.54-.43-1.67.37-1.42-2.05l33.69-12.85,1.3.28c12.12,18.67,20.89,40.44,27.29,61.78.31,1.04.29,3.02,1.71,2.78-4.18-23.29-12.2-45.59-22-66.99,10-2.47,20.31-4.75,30.58-5.93,150.62-17.33,267.33,102.04,272.4,248.45,5.98,172.64-155.61,318.96-327.24,255.24C84.25,484.76,17.25,351.5,42.73,229.57c13.98-66.89,53.67-126.01,111.22-162.78l-20.53,18.46c-70.32,66.3-95.72,171.99-68.25,264.29,10.35,34.77,29.07,67.81,53.77,94.23.99-.37.48-2.47.5-3.49.3-25.38-.48-50.74-1.05-75.96-.24-10.73,1.18-23.8.08-34.08-.43-4.07-3.2-5.31-3.84-8.16-.53-2.36-.06-4.92-.19-7.31l17,1v-4s-17,0-17,0v-19ZM264.43,86.77l-4.09-39.4c-1.81-5.12-.54-12.81-4.9-16.6l2.1,20.4,6.89,35.6ZM284.43,89.77c.21-4.14-.26-8.37-.02-12.52.12-1.96.99-3.72,1.07-5.93.37-10.25.59-22.94,0-33.09-.07-1.23-1.02-7.46-1.55-7.46-.61,1.61-.9,3.96-1.11,5.73-.8,6.79.52,11.75.63,17.75.2,10.67-.23,21.36-.02,32.03.02,1.21-.74,3.73.99,3.49ZM304.43,89.77c2.68-18.37,8.88-36.33,10-54.99-1.42-.24-1.4,1.74-1.7,2.78-4.55,15.59-5.2,32.99-9.21,48.8l.91,3.41ZM322.43,97.77c6.4-18.54,16.25-35.89,21-54.99l-6.77,12.72c-4.87,13.17-9.45,26.45-14.42,39.58-.34.91-1.9,2.79.19,2.69ZM343.43,103.77l25.83-40.68,5.18-10.32c-13.46,13.84-20.73,32.28-31.21,48.29l.2,2.71ZM402.94,70.79c-14.34,10.15-25.25,24.14-37.5,36.49l-6.51,8.48,41.03-39.97,2.98-5.01ZM264.94,88.78c-.65,0-.65,1,0,1s.65-1,0-1ZM303.43,92.77v-1.99h-.99v1.99h.99ZM430.44,93.78c-8.32,2.19-16.08,7.57-23.31,12.18-10.85,6.92-21.19,14.87-31.68,22.32l44.3-26.69,10.69-7.81ZM452.44,122.78c-18.8,4.18-38.32,10.78-55.97,18.52-1.21.53-3.99,1.06-4.02,2.47,18.75-6.73,38.26-11.28,56.77-18.72,1.25-.5,2.95-.54,3.23-2.27ZM390.94,143.78c-.65,0-.65,1,0,1s.65-1,0-1ZM472.44,157.78c-19.58-.4-39.06-.02-58.4,3.09l-7.59,1.9c19.13-.94,38.24-2.29,57.42-3.07l8.58-1.91ZM404.44,162.78h-2.99v.99h2.99v-.99ZM124.43,284.78l-4.99-113c.5,6.93-1.17,13.73-1.93,20.57-2.72,24.31-5.31,48.73-8.73,72.98l15.65,19.45ZM380.44,234.77c-.36-18.74-5.35-37.65-14.49-54.01-.46-.83-1.14-3.35-2.5-2.49,9.51,19.04,12.54,40.82,11.01,62.03-.64,8.86-4.28,18.44-4.93,27.06-.84,11.08,7.23,18.92,12.91,27.41-9.01-2.05-18.36-3.04-26.99-6.5-14-5.61-20.92-17.94-26.01-31.49-1.96-.2-.57,1.82-.27,2.77,6.47,20.87,10.37,34.12,34.02,38.98,4.13.85,8.85.72,13.06,1.94,11.9,3.44,24.6,14.85,25.16,27.9.08,1.87-1.04,3.73-1.05,5.9-.08,9.23,3.25,8.51,9.45,11.64,11.19,5.65,22.16,12.15,26.15,24.85,1.6,5.08,1.83,8.79.91,14.05,10.61,5.34,23.79,8.78,33.54,15.51,2.06,1.42,3.33,4.55,6.04,4.45l2.57-7.02c-31.4-18.93-58.33-47.88-63.49-85.56-2.77-20.26,1.65-43.27-3.35-62.65-2.59-10.03-11.57-21.04-23.03-18.57-1.69.37-7.92,4.63-8.69,3.8ZM489.43,378.78c2.99-9.56,7.29-18.65,10.28-28.23,13.92-44.58,14.46-94.93,2.45-140-2.5-9.39-6.1-18.43-8.73-27.77-1.73-.24-.97,2.29-.99,3.49-.38,19.68.47,36.24-3.13,55.88-6.03,32.9-24.06,68.55-20.89,102.14,1.28,13.6,10.55,26.28,21.01,34.48ZM473.44,198.77c-2.13-3.02-7.67-4.23-11.23-5.27-15.67-4.58-32.52-6.85-48.77-7.72l60,12.99ZM467.44,237.77c-13.74-15.96-34.37-24.52-54-30.99l30.68,15.81,23.31,15.18ZM202.44,320.78c.01,3.81,5.71,2.91,6.82,6.67,2.15,7.25-5.39,13.47.71,21.3,4.51,5.79,13.91,1.29,19.17-1.77,10.62-6.17,20.28-20.32,21.32-32.68.79-9.48-3.02-18.65-1.94-27.94.96-8.32,7.19-16.03,7.94-24.06,2.11-22.84-18.81-32.15-37.24-37.79-4.21-1.29-16.59-4.95-20.27-4.81-1.99.08-3.34.33-3.51,2.57-.03,7.78-1.23,15.24-1.03,23.06.14,5.68,1.32,7.16-.22,13.69-2.45,10.42-6.89,21.12-10.64,31.14,4.56,6.92,11.66.66,18.29,3.58l3.61-5.95.9,9.89-8.9,2.11c1.2,3.7,2.75,6.65,2,11,5.45-.48,11.88,3.76,15,7.99l-12,2.01ZM458.43,295.77c-3.61-24.09-17.21-45.88-34.99-62-.41,1.85,1,2.38,1.99,3.5,14.94,16.81,24.79,34.07,31.29,55.72.31,1.04.29,3.01,1.71,2.78ZM281.94,250.78c10.06,1.41,23.09-1.05,33.5,0,.08-2.12.46-1.91-1.49-1.99-11.02-.46-22.6-3.81-33.76-4.25-3.59-.99-7.27-1.86-10.74-3.26-2.44-.99-4.16-2.6-6.5-3.5-1.27.4,1.09,2.08,1.49,2.51,4.88,5.17,10.08,9.46,17.5,10.5ZM293.44,262.78c4.09,7.75,13.74,13.59,22.46,14.04,4.2.22,8.12.28,5.77-4.77-3.56-7.65-20.65-9.37-28.23-9.27ZM295.44,282.77c-4.92,19.78,9.82,14.63,14.98,1.5-4.25-3.97-9.9,1.28-14.98-1.5ZM327.44,294.78v16.5c0,1.49,4.53,9.62,5.96,11.04l21.05,13.95-16.53-16.47c-5.87-6.9-7.07-13.53-8.99-22.02-.26-1.15,0-3.26-1.49-3.01ZM260.44,420.28c.48-4.94-.35-10.48,0-15.5-2.75.66-5.61,2.94-7.91,4.59-16.75,11.97-27.06,34.51,4.17,30.17,19.48-2.71,43.26-22.42,59.82-33.18,10.35-6.72,20.96-13.15,31.63-19.37.81-.47,1.69.35,1.3-1.69-24.51-15.17-42.39-38.32-44.02-68-.06-1.13.69-2.76-.98-2.5-7.95,21.79-15.3,45.85-37.05,57.64.36,17.77,5.04,37.39-7.46,52.36-1.75-1.13.43-3.78.5-4.5ZM359.93,319.79l6.5,6.5c8.97,9.7,1.26,24.07,9,34,7.3,9.36,21.08,5.16,29.51,11.49,2.09,1.57,3.89,4.31,6,6,.51-.89-.94-2.8-1.49-3.51-7.21-9.29-16.14-8.38-25.27-12.73-14.21-6.76-3.25-28.85-16.8-38.2-2.36-1.63-5.05-2.11-7.46-3.54ZM350.44,425.77l6.81-14.68c4.12-7.05,10.87-14.83,17.84-19.16,4.52-2.81,9.81-3.94,14.33-6.66l-14,2.99c-20.7,6.38-31.74,19.57-37.81,40.05l17.52,8.31,1.29-.28c11.64-12.3,24.84-23,39.34-31.74l17.68-8.81c-14.12,3.07-27.68,8.23-40.31,15.18l-22.68,14.82ZM438.44,411.78c-18.99,2.89-36.86,9.39-53.32,19.18-5.28,3.14-12.13,7.32-16.61,11.39-1.13,1.02-2.46,1.54-2.07,3.42,18.19,1.36,31.24-14.42,46.31-22.18l25.68-11.81ZM209.44,450.28c-.7-4.97,0-12.64,0-18,0-.41,2.59-3.41,0-3.5-4.54,13.06-5.46,27.49-2.55,41.04,1.95,9.08,5.82,23.4,17.78,21.75,10.47-1.45,19.73-7.34,28.76-12.29l-14.42.41c-14.81-.48-27.63-15.49-29.59-29.41ZM329.44,437.78l-4.51-1.95-16.49,27.93,20.51,8.99-6.01-5.98,20.01,9.97,11.5-24.97-17.7-7.85c-2.84-.19-9.14,9.99-7.19,12.74l10.39,5.09,2.5-5.98-8-2.01,2.97-4.57,12.03,2.58c1.01.74-6.96,18.59-8.59,18.95l-21.37-11c-.5-3.19,2.18-5.34,3.48-7.93.85-1.68,7.07-13.52,6.48-14.02ZM193.44,472.28c-.7-6.8.51-14.58,0-21.5l-5.77,10.73-8.27,30.7,22.04,9.56c-1.5-3.79-2.67-7.82-3.73-11.77-1.35-5.01-3.78-12.89-4.27-17.73ZM307.44,471.79l-3.66-1.92-50.33,46.89c6.71,1.9,13.7,1.54,20.52,1.99,5.19.34,11.02,2.21,16.54.58,6.25-13.72,13.35-27.18,21.94-39.55l-3.97-.57c-5.89,5.81-11.98,11.42-18,17.08-1.9,1.79-4.96,2.32-5.04,5.47l-1.99-.5c-.37-4.28,8.2-10.65,11.03-13.97,1.27-6.22,8.89-8.99,11.99-13.01.67-.87,1.34-1.04.98-2.5ZM356.44,504.28c-.58-7.53,0-16.3,0-24,0-.38,2.36-2.58,0-2.5l-9.01,30.99,9.05-2.49c1.63-1.04-.02-1.72-.05-2.01ZM308.44,517.77l13.54-1.95,9.37-28.56-7.91-3.48-15.01,34Z"/>
  <polygon points="171.44 203.77 191.94 185.79 195.42 189.28 183.44 203.28 171.44 203.77"/>
  <path d="M239.43,242.78c.24,1.75-2.33,1.05-3.41.91-3.17-.4-8.18-1.96-11.08-1.97-3.38-.01-7.83,2.42-11.5,2.06l7.99,2.51c3.39,1.35,6.65,3.69,9.98,5.03,2.05.82,4.73-.62,4.03,2.46-2.91-.16-6.36,1.21-8.91,2.59-5.67,3.08-6.85,8.06-15.09,4.4l3-4.5c.16-.74-1.05-.68-1.49-.49-2.35,1.02-5.05,7.19-9.51,6-.4-.47-.88-10.43-1.22-12.28-.56-3.01-3.06-4.77-2.78-7.71,4.52-.84,8.51-3.47,12.95-4.56,10.61-2.61,17.55,1.67,27.05,5.56ZM224.44,254.77l-3-1.99-.99,3.5.48.48,3.51-2Z"/>
</svg>